<svg xmlns="http://www.w3.org/2000/svg" viewBox="0 0 840 264" width="840" height="264" role="img" aria-label="genome" font-family="ui-sans-serif,-apple-system,'Segoe UI',Helvetica,Arial,sans-serif"><title>genome</title><text x="0" y="13" font-family="ui-monospace,SFMono-Regular,'JetBrains Mono','Cascadia Code',Consolas,monospace" font-size="11" fill="#7D8590">chr1<tspan dx="8" fill="#FFF8E8">data &amp; ai</tspan></text><text x="0" y="38" font-size="12.5" fill="#C9D1D9">Python</text><path d="M347.7 28v11M354.1 28v11M360.5 28v11" stroke="#30363D" stroke-width="3" opacity=".55"/><path d="M206.9 28v11M213.3 28v11M219.7 28v11M226.1 28v11M232.5 28v11M238.9 28v11M245.3 28v11M251.7 28v11M258.1 28v11M264.5 28v11M270.9 28v11M277.3 28v11M283.7 28v11M290.1 28v11M296.5 28v11M302.9 28v11M309.3 28v11M315.7 28v11M322.1 28v11M328.5 28v11M334.9 28v11" stroke="#FFF8E8" stroke-width="3"><animate attributeName="opacity" dur="1.6s" fill="freeze" values="0;0;1" keyTimes="0;0.125;1"/></path><path d="M341.3 26v15" stroke="#F2777A" stroke-width="3"><animate attributeName="opacity" dur="1.9s" fill="freeze" values="0;0;1" keyTimes="0;0.263;1"/></path><text x="396" y="38" text-anchor="end" font-family="ui-monospace,SFMono-Regular,'JetBrains Mono','Cascadia Code',Consolas,monospace" font-size="11" fill="#7D8590">90</text><text x="0" y="62" font-size="12.5" fill="#C9D1D9">R</text><path d="M322.1 52v11M328.5 52v11M334.9 52v11M341.3 52v11M347.7 52v11M354.1 52v11M360.5 52v11" stroke="#30363D" stroke-width="3" opacity=".55"/><path d="M206.9 52v11M213.3 52v11M219.7 52v11M226.1 52v11M232.5 52v11M238.9 52v11M245.3 52v11M251.7 52v11M258.1 52v11M264.5 52v11M270.9 52v11M277.3 52v11M283.7 52v11M290.1 52v11M296.5 52v11M302.9 52v11M309.3 52v11" stroke="#FFF8E8" stroke-width="3"><animate attributeName="opacity" dur="1.6s" fill="freeze" values="0;0;1" keyTimes="0;0.169;1"/></path><path d="M315.7 50v15" stroke="#F2777A" stroke-width="3"><animate attributeName="opacity" dur="1.9s" fill="freeze" values="0;0;1" keyTimes="0;0.300;1"/></path><text x="396" y="62" text-anchor="end" font-family="ui-monospace,SFMono-Regular,'JetBrains Mono','Cascadia Code',Consolas,monospace" font-size="11" fill="#7D8590">72</text><text x="0" y="86" font-size="12.5" fill="#C9D1D9">Machine Learning</text><path d="M328.5 76v11M334.9 76v11M341.3 76v11M347.7 76v11M354.1 76v11M360.5 76v11" stroke="#30363D" stroke-width="3" opacity=".55"/><path d="M206.9 76v11M213.3 76v11M219.7 76v11M226.1 76v11M232.5 76v11M238.9 76v11M245.3 76v11M251.7 76v11M258.1 76v11M264.5 76v11M270.9 76v11M277.3 76v11M283.7 76v11M290.1 76v11M296.5 76v11M302.9 76v11M309.3 76v11M315.7 76v11" stroke="#FFF8E8" stroke-width="3"><animate attributeName="opacity" dur="1.6s" fill="freeze" values="0;0;1" keyTimes="0;0.212;1"/></path><path d="M322.1 74v15" stroke="#F2777A" stroke-width="3"><animate attributeName="opacity" dur="1.9s" fill="freeze" values="0;0;1" keyTimes="0;0.337;1"/></path><text x="396" y="86" text-anchor="end" font-family="ui-monospace,SFMono-Regular,'JetBrains Mono','Cascadia Code',Consolas,monospace" font-size="11" fill="#7D8590">75</text><text x="0" y="110" font-size="12.5" fill="#C9D1D9">Data Mining</text><path d="M334.9 100v11M341.3 100v11M347.7 100v11M354.1 100v11M360.5 100v11" stroke="#30363D" stroke-width="3" opacity=".55"/><path d="M206.9 100v11M213.3 100v11M219.7 100v11M226.1 100v11M232.5 100v11M238.9 100v11M245.3 100v11M251.7 100v11M258.1 100v11M264.5 100v11M270.9 100v11M277.3 100v11M283.7 100v11M290.1 100v11M296.5 100v11M302.9 100v11M309.3 100v11M315.7 100v11M322.1 100v11" stroke="#FFF8E8" stroke-width="3"><animate attributeName="opacity" dur="1.6s" fill="freeze" values="0;0;1" keyTimes="0;0.256;1"/></path><path d="M328.5 98v15" stroke="#F2777A" stroke-width="3"><animate attributeName="opacity" dur="1.9s" fill="freeze" values="0;0;1" keyTimes="0;0.374;1"/></path><text x="396" y="110" text-anchor="end" font-family="ui-monospace,SFMono-Regular,'JetBrains Mono','Cascadia Code',Consolas,monospace" font-size="11" fill="#7D8590">80</text><text x="0" y="151" font-family="ui-monospace,SFMono-Regular,'JetBrains Mono','Cascadia Code',Consolas,monospace" font-size="11" fill="#7D8590">chr2<tspan dx="8" fill="#FFF8E8">semantic web</tspan></text><text x="0" y="176" font-size="12.5" fill="#C9D1D9">RDF / JSON-LD</text><path d="M341.3 166v11M347.7 166v11M354.1 166v11M360.5 166v11" stroke="#30363D" stroke-width="3" opacity=".55"/><path d="M206.9 166v11M213.3 166v11M219.7 166v11M226.1 166v11M232.5 166v11M238.9 166v11M245.3 166v11M251.7 166v11M258.1 166v11M264.5 166v11M270.9 166v11M277.3 166v11M283.7 166v11M290.1 166v11M296.5 166v11M302.9 166v11M309.3 166v11M315.7 166v11M322.1 166v11M328.5 166v11" stroke="#FFF8E8" stroke-width="3"><animate attributeName="opacity" dur="1.6s" fill="freeze" values="0;0;1" keyTimes="0;0.300;1"/></path><path d="M334.9 164v15" stroke="#F2777A" stroke-width="3"><animate attributeName="opacity" dur="1.9s" fill="freeze" values="0;0;1" keyTimes="0;0.411;1"/></path><text x="396" y="176" text-anchor="end" font-family="ui-monospace,SFMono-Regular,'JetBrains Mono','Cascadia Code',Consolas,monospace" font-size="11" fill="#7D8590">85</text><text x="0" y="200" font-size="12.5" fill="#C9D1D9">SPARQL</text><path d="M334.9 190v11M341.3 190v11M347.7 190v11M354.1 190v11M360.5 190v11" stroke="#30363D" stroke-width="3" opacity=".55"/><path d="M206.9 190v11M213.3 190v11M219.7 190v11M226.1 190v11M232.5 190v11M238.9 190v11M245.3 190v11M251.7 190v11M258.1 190v11M264.5 190v11M270.9 190v11M277.3 190v11M283.7 190v11M290.1 190v11M296.5 190v11M302.9 190v11M309.3 190v11M315.7 190v11M322.1 190v11" stroke="#FFF8E8" stroke-width="3"><animate attributeName="opacity" dur="1.6s" fill="freeze" values="0;0;1" keyTimes="0;0.344;1"/></path><path d="M328.5 188v15" stroke="#F2777A" stroke-width="3"><animate attributeName="opacity" dur="1.9s" fill="freeze" values="0;0;1" keyTimes="0;0.447;1"/></path><text x="396" y="200" text-anchor="end" font-family="ui-monospace,SFMono-Regular,'JetBrains Mono','Cascadia Code',Consolas,monospace" font-size="11" fill="#7D8590">78</text><text x="0" y="224" font-size="12.5" fill="#C9D1D9">Ontologies (OWL)</text><path d="M322.1 214v11M328.5 214v11M334.9 214v11M341.3 214v11M347.7 214v11M354.1 214v11M360.5 214v11" stroke="#30363D" stroke-width="3" opacity=".55"/><path d="M206.9 214v11M213.3 214v11M219.7 214v11M226.1 214v11M232.5 214v11M238.9 214v11M245.3 214v11M251.7 214v11M258.1 214v11M264.5 214v11M270.9 214v11M277.3 214v11M283.7 214v11M290.1 214v11M296.5 214v11M302.9 214v11M309.3 214v11" stroke="#FFF8E8" stroke-width="3"><animate attributeName="opacity" dur="1.6s" fill="freeze" values="0;0;1" keyTimes="0;0.388;1"/></path><path d="M315.7 212v15" stroke="#F2777A" stroke-width="3"><animate attributeName="opacity" dur="1.9s" fill="freeze" values="0;0;1" keyTimes="0;0.484;1"/></path><text x="396" y="224" text-anchor="end" font-family="ui-monospace,SFMono-Regular,'JetBrains Mono','Cascadia Code',Consolas,monospace" font-size="11" fill="#7D8590">70</text><text x="0" y="248" font-size="12.5" fill="#C9D1D9">Neo4j / Cypher</text><path d="M309.3 238v11M315.7 238v11M322.1 238v11M328.5 238v11M334.9 238v11M341.3 238v11M347.7 238v11M354.1 238v11M360.5 238v11" stroke="#30363D" stroke-width="3" opacity=".55"/><path d="M206.9 238v11M213.3 238v11M219.7 238v11M226.1 238v11M232.5 238v11M238.9 238v11M245.3 238v11M251.7 238v11M258.1 238v11M264.5 238v11M270.9 238v11M277.3 238v11M283.7 238v11M290.1 238v11M296.5 238v11" stroke="#FFF8E8" stroke-width="3"><animate attributeName="opacity" dur="1.6s" fill="freeze" values="0;0;1" keyTimes="0;0.431;1"/></path><path d="M302.9 236v15" stroke="#F2777A" stroke-width="3"><animate attributeName="opacity" dur="1.9s" fill="freeze" values="0;0;1" keyTimes="0;0.521;1"/></path><text x="396" y="248" text-anchor="end" font-family="ui-monospace,SFMono-Regular,'JetBrains Mono','Cascadia Code',Consolas,monospace" font-size="11" fill="#7D8590">66</text><text x="444" y="13" font-family="ui-monospace,SFMono-Regular,'JetBrains Mono','Cascadia Code',Consolas,monospace" font-size="11" fill="#7D8590">chr3<tspan dx="8" fill="#FFF8E8">bioinformatics</tspan></text><text x="444" y="38" font-size="12.5" fill="#C9D1D9">Systems biology</text><path d="M766.1 28v11M772.5 28v11M778.9 28v11M785.3 28v11M791.7 28v11M798.1 28v11M804.5 28v11" stroke="#30363D" stroke-width="3" opacity=".55"/><path d="M650.9 28v11M657.3 28v11M663.7 28v11M670.1 28v11M676.5 28v11M682.9 28v11M689.3 28v11M695.7 28v11M702.1 28v11M708.5 28v11M714.9 28v11M721.3 28v11M727.7 28v11M734.1 28v11M740.5 28v11M746.9 28v11M753.3 28v11" stroke="#FFF8E8" stroke-width="3"><animate attributeName="opacity" dur="1.6s" fill="freeze" values="0;0;1" keyTimes="0;0.475;1"/></path><path d="M759.7 26v15" stroke="#F2777A" stroke-width="3"><animate attributeName="opacity" dur="1.9s" fill="freeze" values="0;0;1" keyTimes="0;0.558;1"/></path><text x="840" y="38" text-anchor="end" font-family="ui-monospace,SFMono-Regular,'JetBrains Mono','Cascadia Code',Consolas,monospace" font-size="11" fill="#7D8590">72</text><text x="444" y="62" font-size="12.5" fill="#C9D1D9">Genomic analysis</text><path d="M759.7 52v11M766.1 52v11M772.5 52v11M778.9 52v11M785.3 52v11M791.7 52v11M798.1 52v11M804.5 52v11" stroke="#30363D" stroke-width="3" opacity=".55"/><path d="M650.9 52v11M657.3 52v11M663.7 52v11M670.1 52v11M676.5 52v11M682.9 52v11M689.3 52v11M695.7 52v11M702.1 52v11M708.5 52v11M714.9 52v11M721.3 52v11M727.7 52v11M734.1 52v11M740.5 52v11M746.9 52v11" stroke="#FFF8E8" stroke-width="3"><animate attributeName="opacity" dur="1.6s" fill="freeze" values="0;0;1" keyTimes="0;0.519;1"/></path><path d="M753.3 50v15" stroke="#F2777A" stroke-width="3"><animate attributeName="opacity" dur="1.9s" fill="freeze" values="0;0;1" keyTimes="0;0.595;1"/></path><text x="840" y="62" text-anchor="end" font-family="ui-monospace,SFMono-Regular,'JetBrains Mono','Cascadia Code',Consolas,monospace" font-size="11" fill="#7D8590">68</text><text x="444" y="86" font-size="12.5" fill="#C9D1D9">Biostatistics</text><path d="M766.1 76v11M772.5 76v11M778.9 76v11M785.3 76v11M791.7 76v11M798.1 76v11M804.5 76v11" stroke="#30363D" stroke-width="3" opacity=".55"/><path d="M650.9 76v11M657.3 76v11M663.7 76v11M670.1 76v11M676.5 76v11M682.9 76v11M689.3 76v11M695.7 76v11M702.1 76v11M708.5 76v11M714.9 76v11M721.3 76v11M727.7 76v11M734.1 76v11M740.5 76v11M746.9 76v11M753.3 76v11" stroke="#FFF8E8" stroke-width="3"><animate attributeName="opacity" dur="1.6s" fill="freeze" values="0;0;1" keyTimes="0;0.562;1"/></path><path d="M759.7 74v15" stroke="#F2777A" stroke-width="3"><animate attributeName="opacity" dur="1.9s" fill="freeze" values="0;0;1" keyTimes="0;0.632;1"/></path><text x="840" y="86" text-anchor="end" font-family="ui-monospace,SFMono-Regular,'JetBrains Mono','Cascadia Code',Consolas,monospace" font-size="11" fill="#7D8590">74</text><text x="444" y="127" font-family="ui-monospace,SFMono-Regular,'JetBrains Mono','Cascadia Code',Consolas,monospace" font-size="11" fill="#7D8590">chr4<tspan dx="8" fill="#FFF8E8">software</tspan></text><text x="444" y="152" font-size="12.5" fill="#C9D1D9">TypeScript</text><path d="M778.9 142v11M785.3 142v11M791.7 142v11M798.1 142v11M804.5 142v11" stroke="#30363D" stroke-width="3" opacity=".55"/><path d="M650.9 142v11M657.3 142v11M663.7 142v11M670.1 142v11M676.5 142v11M682.9 142v11M689.3 142v11M695.7 142v11M702.1 142v11M708.5 142v11M714.9 142v11M721.3 142v11M727.7 142v11M734.1 142v11M740.5 142v11M746.9 142v11M753.3 142v11M759.7 142v11M766.1 142v11" stroke="#FFF8E8" stroke-width="3"><animate attributeName="opacity" dur="1.6s" fill="freeze" values="0;0;1" keyTimes="0;0.606;1"/></path><path d="M772.5 140v15" stroke="#F2777A" stroke-width="3"><animate attributeName="opacity" dur="1.9s" fill="freeze" values="0;0;1" keyTimes="0;0.668;1"/></path><text x="840" y="152" text-anchor="end" font-family="ui-monospace,SFMono-Regular,'JetBrains Mono','Cascadia Code',Consolas,monospace" font-size="11" fill="#7D8590">78</text><text x="444" y="176" font-size="12.5" fill="#C9D1D9">React / Next.js</text><path d="M772.5 166v11M778.9 166v11M785.3 166v11M791.7 166v11M798.1 166v11M804.5 166v11" stroke="#30363D" stroke-width="3" opacity=".55"/><path d="M650.9 166v11M657.3 166v11M663.7 166v11M670.1 166v11M676.5 166v11M682.9 166v11M689.3 166v11M695.7 166v11M702.1 166v11M708.5 166v11M714.9 166v11M721.3 166v11M727.7 166v11M734.1 166v11M740.5 166v11M746.9 166v11M753.3 166v11M759.7 166v11" stroke="#FFF8E8" stroke-width="3"><animate attributeName="opacity" dur="1.6s" fill="freeze" values="0;0;1" keyTimes="0;0.650;1"/></path><path d="M766.1 164v15" stroke="#F2777A" stroke-width="3"><animate attributeName="opacity" dur="1.9s" fill="freeze" values="0;0;1" keyTimes="0;0.705;1"/></path><text x="840" y="176" text-anchor="end" font-family="ui-monospace,SFMono-Regular,'JetBrains Mono','Cascadia Code',Consolas,monospace" font-size="11" fill="#7D8590">76</text><text x="444" y="200" font-size="12.5" fill="#C9D1D9">SQL</text><path d="M766.1 190v11M772.5 190v11M778.9 190v11M785.3 190v11M791.7 190v11M798.1 190v11M804.5 190v11" stroke="#30363D" stroke-width="3" opacity=".55"/><path d="M650.9 190v11M657.3 190v11M663.7 190v11M670.1 190v11M676.5 190v11M682.9 190v11M689.3 190v11M695.7 190v11M702.1 190v11M708.5 190v11M714.9 190v11M721.3 190v11M727.7 190v11M734.1 190v11M740.5 190v11M746.9 190v11M753.3 190v11" stroke="#FFF8E8" stroke-width="3"><animate attributeName="opacity" dur="1.6s" fill="freeze" values="0;0;1" keyTimes="0;0.694;1"/></path><path d="M759.7 188v15" stroke="#F2777A" stroke-width="3"><animate attributeName="opacity" dur="1.9s" fill="freeze" values="0;0;1" keyTimes="0;0.742;1"/></path><text x="840" y="200" text-anchor="end" font-family="ui-monospace,SFMono-Regular,'JetBrains Mono','Cascadia Code',Consolas,monospace" font-size="11" fill="#7D8590">72</text><text x="444" y="224" font-size="12.5" fill="#C9D1D9">Docker / Linux</text><path d="M766.1 214v11M772.5 214v11M778.9 214v11M785.3 214v11M791.7 214v11M798.1 214v11M804.5 214v11" stroke="#30363D" stroke-width="3" opacity=".55"/><path d="M650.9 214v11M657.3 214v11M663.7 214v11M670.1 214v11M676.5 214v11M682.9 214v11M689.3 214v11M695.7 214v11M702.1 214v11M708.5 214v11M714.9 214v11M721.3 214v11M727.7 214v11M734.1 214v11M740.5 214v11M746.9 214v11M753.3 214v11" stroke="#FFF8E8" stroke-width="3"><animate attributeName="opacity" dur="1.6s" fill="freeze" values="0;0;1" keyTimes="0;0.738;1"/></path><path d="M759.7 212v15" stroke="#F2777A" stroke-width="3"><animate attributeName="opacity" dur="1.9s" fill="freeze" values="0;0;1" keyTimes="0;0.779;1"/></path><text x="840" y="224" text-anchor="end" font-family="ui-monospace,SFMono-Regular,'JetBrains Mono','Cascadia Code',Consolas,monospace" font-size="11" fill="#7D8590">70</text></svg>